# xmcd
#
# Track frame offsets:
#	202
#	27632
#	57060
#	88472
#	121735
#	145482
#	172992
#	196205
#	224442
#	252980
#	277272
#	302137
#
# Disc length: 4286 seconds
#
# Revision: 1
# Processed by: cddbd v1.5.2PL0 Copyright (c) Steve Scherf et al.
# Submitted via: EasyCDDAExtractor 16.0.9.1
#
DISCID=ba10bc0c
DTITLE=Hoàng Oanh - HOCD01: Nhạc Vàng Tuyển Chọn
DYEAR=1988
DGENRE=Country
TTITLE0=Những Ngày Thơ Mộng (Hoàng Thi Thơ)
TTITLE1=Buồn Chi Em Ơi (Lam Phương)
TTITLE2=Hai Vì Sao Lạc (Anh Việt Thu)
TTITLE3=Chuyến Tàu Hoàng Hôn (Hoài Linh - Minh Kỳ)
TTITLE4=Xin Trả Lại Em (Nhất Tuấn - Hoàng Lang)
TTITLE5=Biết Đâu Tìm (Hoàng Thi Thơ)
TTITLE6=Ai Ra Xứ Huế (Duy Khánh)
TTITLE7=Trăng Tàn Trên Hè Phố (Phạm Thế Mỹ)
TTITLE8=Hạ Buồn (Thanh Sơn)
TTITLE9=Giây Phút Tạ Từ (Trần Thiện Thanh)
TTITLE10=Thu Tím Lá Vàng (Văn Tùng)
TTITLE11=Vườn Thu (Văn Thủy)
EXTD=
EXTT0=
EXTT1=
EXTT2=
EXTT3=
EXTT4=
EXTT5=
EXTT6=
EXTT7=
EXTT8=
EXTT9=
EXTT10=
EXTT11=
PLAYORDER=
